<?xml version="1.0" encoding="iso-8859-1"?>
<!-- Generator: Adobe Illustrator 19.0.0, SVG Export Plug-In . SVG Version: 6.00 Build 0)  -->
<svg version="1.1" id="Layer_1" xmlns="http://www.w3.org/2000/svg" xmlns:xlink="http://www.w3.org/1999/xlink" x="0px" y="0px"
	 viewBox="0 0 512 512" style="enable-background:new 0 0 512 512;" xml:space="preserve">
<rect y="270.327" style="fill:#3FA9F5;" width="512" height="104.49"/>
<rect y="374.817" style="fill:#FFD46A;" width="512" height="130.612"/>
<path style="fill:#FFD248;" d="M412.735,71.799c34.586,0,62.694,28.108,62.694,62.694s-28.108,62.694-62.694,62.694
	s-62.694-28.108-62.694-62.694S378.149,71.799,412.735,71.799z"/>
<path style="fill:#B3B3B3;" d="M245.551,197.186h-62.694c0-62.694-36.571-99.265-36.571-99.265
	C201.143,97.921,245.551,142.329,245.551,197.186z"/>
<path style="fill:#CCCCCC;" d="M146.286,97.921c0,0,36.571,36.571,36.571,99.265h-36.571H104.49
	C104.49,144.941,146.286,97.921,146.286,97.921z"/>
<path style="fill:#E6E6E6;" d="M146.286,97.921c0,0-41.796,47.02-41.796,99.265H47.02C47.02,142.329,91.429,97.921,146.286,97.921z"
	/>
<path d="M180.245,40.452h15.673c0-5.186,4.472-9.757,13.292-13.59c8.089-3.514,16.479-4.765,16.563-4.776l-1.12-7.756l-1.109-7.758
	c-10.65,1.522-26.184,6.3-35.463,15.703c-9.279-9.403-24.813-14.181-35.463-15.703l-2.216,15.517
	C156.706,22.988,180.245,28.744,180.245,40.452z"/>
<path d="M263.837,92.697h15.673c0-5.186,4.472-9.757,13.292-13.59c8.089-3.514,16.479-4.765,16.563-4.776l-1.12-7.756l-1.109-7.758
	c-10.65,1.521-26.185,6.3-35.463,15.703c-9.279-9.403-24.813-14.181-35.463-15.703l-2.216,15.517
	C240.298,75.233,263.837,80.988,263.837,92.697z"/>
<rect x="26.122" y="450.572" width="20.898" height="15.673"/>
<rect x="67.918" y="408.776" width="20.898" height="15.673"/>
<rect x="67.918" y="471.47" width="20.898" height="15.673"/>
<rect x="130.612" y="461.021" width="20.898" height="15.673"/>
<rect x="203.755" y="471.47" width="20.898" height="15.673"/>
<rect x="203.755" y="419.225" width="20.898" height="15.673"/>
<rect x="266.449" y="408.776" width="20.898" height="15.673"/>
<rect x="339.592" y="440.123" width="20.898" height="15.673"/>
<rect x="287.347" y="471.47" width="20.898" height="15.673"/>
<rect x="391.837" y="408.776" width="20.898" height="15.673"/>
<rect x="391.837" y="471.47" width="20.898" height="15.673"/>
<rect x="464.98" y="440.123" width="20.898" height="15.673"/>
<rect x="219.429" y="309.511" width="47.02" height="15.673"/>
<rect x="276.898" y="309.511" width="20.898" height="15.673"/>
<rect x="20.898" y="330.409" width="47.02" height="15.673"/>
<rect x="78.367" y="330.409" width="20.898" height="15.673"/>
<rect x="407.51" y="330.409" width="47.02" height="15.673"/>
<rect x="376.163" y="330.409" width="20.898" height="15.673"/>
<path d="M512,262.492H154.122v-57.469h99.265v-7.837c0-59.057-48.045-107.102-107.102-107.102S39.184,138.13,39.184,197.186v7.837
	h99.265v57.469H0v15.673h138.449v88.816H0v15.673h138.449v31.347h-23.51v15.673h62.694v-15.673h-23.51v-31.347H512v-15.673H154.122
	v-88.816H512V262.492z M112.666,189.35c2.868-34.181,23.526-65.466,33.763-79.066c9.151,12.074,26.295,39.7,28.364,79.066H112.666z
	 M237.382,189.35h-46.891c-1.768-38.054-16.039-66.042-26.755-81.921C203.332,115.113,233.891,148.43,237.382,189.35z
	 M129.103,107.384c-12.07,17.268-29.727,47.89-32.165,81.966H55.189C58.689,148.338,89.378,114.97,129.103,107.384z"/>
<path d="M412.735,205.023c38.891,0,70.531-31.64,70.531-70.531s-31.64-70.531-70.531-70.531s-70.531,31.64-70.531,70.531
	S373.844,205.023,412.735,205.023z M412.735,79.635c30.248,0,54.857,24.608,54.857,54.857s-24.609,54.857-54.857,54.857
	s-54.857-24.608-54.857-54.857S382.487,79.635,412.735,79.635z"/>
<g>
</g>
<g>
</g>
<g>
</g>
<g>
</g>
<g>
</g>
<g>
</g>
<g>
</g>
<g>
</g>
<g>
</g>
<g>
</g>
<g>
</g>
<g>
</g>
<g>
</g>
<g>
</g>
<g>
</g>
</svg>
