<svg id="Capa_1" enable-background="new 0 0 512 512" height="512" viewBox="0 0 512 512" width="512" xmlns="http://www.w3.org/2000/svg"><g><path d="m511.976 347.896c0-20.564-11.844-38.126-30.911-45.832-19.07-7.706-39.788-3.302-54.077 11.486l-63.428 65.629h-42.408v-132.699c8.01-2.492 15.406-6.844 21.622-12.852.321-.31.623-.632.935-.948 9.644 9.996 23.179 16.236 38.157 16.236 14.758 0 28.113-6.093 37.704-15.886.098.102.189.208.288.309 9.838 10.045 23.037 15.577 37.166 15.577 29.576 0 53.689-24.062 53.752-53.647.082-52.133-20.158-101.163-56.993-138.056-36.835-36.895-85.832-57.213-137.967-57.213h-28.532c-103.356 4.702-185.996 90.465-185.996 194.962 0 0-.154 5.313.107 7.49 3.18 26.488 25.763 46.464 52.53 46.464 14.884 0 28.348-6.137 37.995-15.991 9.55 9.854 22.88 15.991 37.615 15.991 14.928 0 28.437-6.103 38.132-15.911.106.11.205.225.311.334 6.493 6.629 14.454 11.278 23.176 13.683v132.157h-230.686c-32.823 0-60.444 26.703-60.444 59.525v30.971h54.166v42.325h29.999v-42.325h206.965v42.325h29.999v-42.325h60.773v42.325h29.999v-51.292l100.052-104.24v-8.572zm-107.304-151.785c0 12.574-10.231 22.806-22.806 22.806-12.629 0-22.906-10.171-22.968-22.693l-.003-21.764h46.098l-.209 21.506-.001.146h-.111zm52.353 22.806c-12.45 0-22.208-9.982-22.242-22.738l.211-21.719h44.53c.841 6.832 1.266 13.76 1.255 20.754-.029 13.069-10.685 23.703-23.754 23.703zm-24.471-140.51c18.808 18.838 32.493 41.418 40.381 66.053h-37.684c-.341-32.957-11.447-64.068-31.658-89.242 10.372 6.544 20.084 14.297 28.961 23.189zm-27.304 66.054h-46.358l-.003-28.378c0-25.446-5.299-49.987-15.48-72.331 10.413 5.455 20.006 12.477 28.465 20.955 21.176 21.221 32.982 49.484 33.376 79.754zm-136.457-100.798c-10.447 22.572-15.885 47.149-15.885 72.42v28.378h-45.897c.41-44.213 25.016-81.742 61.782-100.798zm14.114 72.42c0-27.9 8.023-54.777 23.227-78.042 14.896 22.878 22.757 49.752 22.757 78.044l.003 28.376h-45.987zm-74.775-60.518c-19.962 25.058-30.877 55.998-31.121 88.896h-37.811c11.941-37.053 36.655-68.42 68.932-88.896zm-54.208 163.352c-11.525 0-21.255-8.511-22.719-19.83-.001-.281.018-.564.029-.849.027-.706.051-1.415.051-2.127v-1.149c0-6.941.432-13.783 1.268-20.502h44.442l-.001 21.651c.001 12.575-10.349 22.806-23.07 22.806zm75.61 0c-12.429 0-22.54-10.231-22.54-22.806l.001-21.651h45.913v21.651h-.004c0 12.362-10.702 22.806-23.37 22.806zm53.373-22.642v-21.815h45.99l.003 21.651h-.003c0 12.362-10.877 22.806-23.753 22.806-12.419 0-22.154-9.932-22.237-22.642zm-251.966 242.429c0-16.281 13.246-29.526 29.527-29.526h299.725l13.611 30.499h-342.863zm370.595-10.5-13.786-30.89 60.813-62.922c8.451-8.747 18.409-5.67 21.261-4.515 2.582 1.043 10.455 5 11.917 14.772z"/></g></svg>